<?xml version="1.0" encoding="UTF-8" standalone="no"?>
<!DOCTYPE svg PUBLIC "-//W3C//DTD SVG 1.1//EN" "http://www.w3.org/Graphics/SVG/1.1/DTD/svg11.dtd">
<svg width="100%" height="100%" viewBox="0 0 256 256" version="1.1" xmlns="http://www.w3.org/2000/svg" xmlns:xlink="http://www.w3.org/1999/xlink" xml:space="preserve" xmlns:serif="http://www.serif.com/" style="fill-rule:evenodd;clip-rule:evenodd;stroke-linejoin:round;stroke-miterlimit:2;">
    <rect id="light" x="0" y="0" width="256" height="256" style="fill:none;"/>
    <clipPath id="_clip1">
        <rect id="light1" serif:id="light" x="0" y="0" width="256" height="256"/>
    </clipPath>
    <g clip-path="url(#_clip1)">
        <path d="M102.621,211.756C110.657,214.191 119.177,215.5 128,215.5C136.823,215.5 145.343,214.191 153.379,211.756L155.452,214.863L128,256L100.548,214.863L102.621,211.756ZM205.158,169.276L208.833,170.01L218.51,218.51L170.01,208.833L169.276,205.158C184.48,197.001 197,184.481 205.158,169.276ZM50.842,169.276C58.999,184.48 71.519,197 86.724,205.158L85.99,208.833L37.49,218.51L47.167,170.01L50.842,169.276ZM128,51C170.497,51 205,85.503 205,128C205,170.497 170.497,205 128,205C85.503,205 51,170.497 51,128C51,85.503 85.503,51 128,51ZM211.756,102.621L214.863,100.548L256,128L214.863,155.452L211.756,153.379C214.191,145.343 215.5,136.823 215.5,128C215.5,119.177 214.191,110.657 211.756,102.621ZM44.244,102.621C41.809,110.657 40.5,119.177 40.5,128C40.5,136.823 41.809,145.343 44.244,153.379L41.137,155.452L-0,128L41.137,100.548L44.244,102.621ZM169.276,50.842L170.01,47.167L218.51,37.49L208.833,85.99L205.158,86.724C197.001,71.52 184.481,59 169.276,50.842ZM50.842,86.724L47.167,85.99L37.49,37.49L85.99,47.167L86.724,50.842C71.52,58.999 59,71.519 50.842,86.724ZM102.621,44.244L100.548,41.137L128,-0L155.452,41.137L153.379,44.244C145.343,41.809 136.823,40.5 128,40.5C119.177,40.5 110.657,41.809 102.621,44.244Z" style="fill:rgb(235,235,235);"/>
    </g>
</svg>
