<?xml version="1.0" encoding="UTF-8" standalone="no"?>
<!DOCTYPE svg PUBLIC "-//W3C//DTD SVG 1.1//EN" "http://www.w3.org/Graphics/SVG/1.1/DTD/svg11.dtd">
<svg width="100%" height="100%" viewBox="0 0 131 131" version="1.1" xmlns="http://www.w3.org/2000/svg" xmlns:xlink="http://www.w3.org/1999/xlink" xml:space="preserve" xmlns:serif="http://www.serif.com/" style="fill-rule:evenodd;clip-rule:evenodd;stroke-linecap:round;stroke-linejoin:round;stroke-miterlimit:1.5;">
    <g transform="matrix(1,0,0,1,-23.5,-259.362)">
        <g transform="matrix(1,0,0,1,-15,10)">
            <g transform="matrix(1,0,0,1,-4.54747e-13,210.862)">
                <path d="M76.005,139.533L77.298,139.548L77.457,132.792L79.213,102.815L80.543,88.196C80.931,90.413 81.214,91.961 81.39,92.84C81.566,93.72 81.725,94.459 81.866,95.057L85.674,110.521L92.181,139.548C96.684,139.477 100.027,139.442 102.208,139.442C103.932,139.442 107.081,139.477 111.655,139.548L121.593,109.571L128.517,88.09C128.588,90.659 128.623,92.664 128.623,94.107C128.623,97.414 128.409,105.023 127.98,116.933C127.552,128.843 127.194,136.381 126.908,139.548L131.079,139.504L103.528,167.055L76.005,139.533ZM167.055,103.528L146.651,123.932C146.73,117.498 146.93,108.876 147.227,98.065L147.71,84.182L167.055,103.528ZM63.062,91.89L60.264,123.791L40,103.528L63.876,79.652L63.062,91.89ZM131.12,67.592L118.675,67.507C117.793,70.744 117.097,73.146 116.586,74.711C116.075,76.277 114.868,79.593 112.964,84.66C111.061,89.726 109.475,94.248 108.206,98.224C106.937,102.199 105.527,106.949 103.976,112.473C102.467,104.416 101.335,98.725 100.581,95.4C99.827,92.075 98.827,88.134 97.581,83.578C96.335,79.022 95.555,75.961 95.239,74.395C94.923,72.829 94.537,70.533 94.081,67.507C87.76,67.578 83.064,67.613 79.992,67.613L75.943,67.585L103.528,40L131.12,67.592Z" style="fill:none;stroke:url(#_Linear1);stroke-width:5px;"/>
            </g>
        </g>
    </g>
    <defs>
        <linearGradient id="_Linear1" x1="0" y1="0" x2="1" y2="0" gradientUnits="userSpaceOnUse" gradientTransform="matrix(-162.529,-1.64704,1.64704,-162.529,103.976,112.472)"><stop offset="0" style="stop-color:rgb(13,215,242);stop-opacity:1"/><stop offset="1" style="stop-color:rgb(204,13,242);stop-opacity:1"/></linearGradient>
    </defs>
</svg>
